<svg width="14" height="14" viewBox="0 0 14 14" fill="none" xmlns="http://www.w3.org/2000/svg">
<g clip-path="url(#clip0_5_74)">
<path d="M9.24738 6.66399L13.63 9.43462V3.77637L9.24738 6.66399Z" fill="white"/>
<path d="M0.630005 3.77637V9.43462L5.01263 6.66399L0.630005 3.77637Z" fill="white"/>
<path d="M12.8175 2.12866H1.44248C1.03705 2.12866 0.715295 2.43091 0.654358 2.8201L7.12998 7.08654L13.6056 2.8201C13.5447 2.43091 13.2229 2.12866 12.8175 2.12866Z" fill="white"/>
<path d="M8.50313 7.15486L7.35344 7.91211C7.28519 7.9568 7.20801 7.97874 7.13001 7.97874C7.05201 7.97874 6.97482 7.9568 6.90657 7.91211L5.75688 7.15405L0.656006 10.3805C0.718568 10.7664 1.03869 11.0662 1.44251 11.0662H12.8175C13.2213 11.0662 13.5414 10.7664 13.604 10.3805L8.50313 7.15486Z" fill="white"/>
</g>
<defs>
<clipPath id="clip0_5_74">
<rect width="13" height="13" fill="white" transform="translate(0.630005 0.0974121)"/>
</clipPath>
</defs>
</svg>
