<svg width="14" height="14" viewBox="0 0 14 14" fill="none" xmlns="http://www.w3.org/2000/svg">
<g clip-path="url(#clip0_5_102)">
<path d="M13.27 9.73503L11.4558 7.92084C10.8079 7.27291 9.70639 7.53211 9.44722 8.37438C9.25284 8.95754 8.60492 9.2815 8.02179 9.15189C6.72594 8.82793 4.97654 7.14333 4.65258 5.78269C4.4582 5.19953 4.84696 4.5516 5.43009 4.35725C6.27239 4.09808 6.53156 2.99661 5.88364 2.34869L4.06945 0.534496C3.55111 0.0809492 2.7736 0.0809492 2.32005 0.534496L1.08899 1.76555C-0.142062 3.0614 1.21858 6.4954 4.26383 9.54065C7.30907 12.5859 10.7431 14.0114 12.0389 12.7155L13.27 11.4844C13.7235 10.9661 13.7235 10.1886 13.27 9.73503Z" fill="white"/>
</g>
<defs>
<clipPath id="clip0_5_102">
<rect width="13" height="13" fill="white" transform="translate(0.623779 0.194336)"/>
</clipPath>
</defs>
</svg>
