<svg width="14" height="13" viewBox="0 0 14 13" fill="none" xmlns="http://www.w3.org/2000/svg">
<g clip-path="url(#clip0_5_68)">
<path d="M13.0775 4.58826C13.0776 3.36733 12.599 2.21642 11.7301 1.34749C10.8612 0.478554 9.71025 0 8.48922 0H5.77064C5.77054 0 5.77054 0 5.77054 0C4.54971 0 3.3987 0.478554 2.52986 1.34739C1.66093 2.21642 1.18237 3.36733 1.18237 4.58826V6.72524C1.18237 7.67085 1.47079 8.58035 2.01649 9.35565C2.49792 10.0396 3.14539 10.5739 3.90026 10.9126V12.1401C3.90026 12.7748 4.25563 13 4.55992 13C4.77733 13 4.99474 12.8927 5.20639 12.6811L6.57391 11.3136L8.48932 11.3135C9.71025 11.3135 10.8612 10.835 11.7301 9.96612C12.599 9.09718 13.0776 7.94617 13.0776 6.72524L13.0775 4.58826ZM8.48932 10.5518L6.41621 10.5519C6.31515 10.5519 6.21835 10.592 6.14693 10.6634L4.66783 12.1425C4.66595 12.1445 4.66396 12.1463 4.66198 12.1482C4.66198 12.1455 4.66198 12.1428 4.66198 12.1401V10.6584C4.66198 10.5004 4.56448 10.3589 4.4169 10.3025C2.9379 9.7382 1.94419 8.30055 1.94419 6.72524V4.58826C1.94419 3.57076 2.3435 2.61107 3.06852 1.88595C3.79354 1.16103 4.75313 0.761719 5.77064 0.761719H8.48922C9.50673 0.761719 10.4664 1.16103 11.1914 1.88605C11.9166 2.61117 12.3159 3.57085 12.3158 4.58826L12.3159 6.72524C12.3158 8.83524 10.5992 10.5518 8.48932 10.5518Z" fill="white"/>
<path d="M8.14278 6.22919C7.9941 6.08042 7.75299 6.08042 7.60422 6.22919L7.29656 6.53676L6.10439 5.34469L6.41205 5.03712C6.48346 4.96571 6.52363 4.86881 6.52363 4.76775C6.52363 4.66678 6.48346 4.56988 6.41205 4.49847L4.96974 3.05616C4.89833 2.98475 4.80153 2.94458 4.70046 2.94458C4.5995 2.94458 4.50259 2.98475 4.43118 3.05616L3.42151 4.06583C2.87551 4.61183 2.87551 5.5004 3.42161 6.0467L6.59454 9.21983C6.85837 9.48356 7.21017 9.62876 7.58498 9.62876C7.95989 9.62876 8.31168 9.48356 8.57551 9.21983L9.58518 8.21026C9.65659 8.13875 9.69676 8.04195 9.69676 7.94088C9.69676 7.83991 9.65659 7.74301 9.58518 7.6716L8.14278 6.22919ZM8.03685 8.68108C7.91694 8.80099 7.75646 8.86704 7.58498 8.86704C7.41349 8.86704 7.25301 8.80099 7.1331 8.68108L3.96027 5.50804C3.71112 5.2589 3.71102 4.85344 3.96017 4.60439L4.70046 3.864L5.60411 4.76775L5.29645 5.07531C5.22504 5.14672 5.18487 5.24362 5.18487 5.34459C5.18487 5.44566 5.22504 5.54246 5.29645 5.61397L7.02718 7.3447C7.17595 7.49337 7.41706 7.49347 7.56583 7.3447L7.8735 7.03713L8.77715 7.94078L8.03685 8.68108Z" fill="white"/>
<path d="M7.22235 1.68481C7.01199 1.68481 6.84149 1.85531 6.84149 2.06567C6.84149 2.27594 7.01199 2.44653 7.22235 2.44653C8.09396 2.44653 8.91351 2.78593 9.52982 3.40235C10.1462 4.01867 10.4856 4.83811 10.4856 5.70982C10.4856 5.92009 10.6561 6.09068 10.8665 6.09068C11.0768 6.09068 11.2474 5.92019 11.2474 5.70982C11.2474 4.63469 10.8287 3.62392 10.0685 2.86369C9.30825 2.10346 8.29749 1.68481 7.22235 1.68481Z" fill="white"/>
<path d="M8.8539 5.70982C8.8539 5.92008 9.02449 6.09068 9.23476 6.09068C9.44512 6.09068 9.61562 5.92008 9.61562 5.70982C9.61562 4.3902 8.54197 3.31665 7.22235 3.31665C7.01199 3.31665 6.84149 3.48714 6.84149 3.69751C6.84149 3.90788 7.01199 4.07837 7.22235 4.07837C8.12203 4.07837 8.8539 4.81023 8.8539 5.70982Z" fill="white"/>
</g>
<defs>
<clipPath id="clip0_5_68">
<rect width="13" height="13" fill="white" transform="translate(0.623779)"/>
</clipPath>
</defs>
</svg>
